<svg width="60" height="60" viewBox="0 0 60 60" fill="none" xmlns="http://www.w3.org/2000/svg">
<g clip-path="url(#clip0_601_1287)">
<path d="M57.1086 52.2046C58.9492 52.4153 59.9736 53.5523 59.976 55.3481C59.9772 56.4767 59.9785 57.6053 59.9772 58.7338C59.976 59.6566 59.6685 59.969 58.7554 59.969C46.6268 59.969 34.4982 59.969 22.3708 59.969C15.3596 59.969 8.34835 59.969 1.33711 59.969C0.299346 59.969 0.0232559 59.6917 0.022045 58.6442C0.0208341 57.5968 0.0838021 56.5445 0.00872487 55.5019C-0.103891 53.9216 0.874534 52.3789 2.89435 52.1949C2.89435 42.5099 2.89435 32.8225 2.89435 23.1182C1.43882 22.6266 0.44829 21.6845 0.104388 20.1478C0.0438416 19.8766 0.0256778 19.5896 0.0256778 19.311C0.0208341 15.8042 0.0196232 12.2986 0.0232559 8.79176C0.0256778 7.0214 1.24992 5.81168 3.03119 5.80563C3.61243 5.80321 4.19367 5.80563 4.85726 5.80563C4.85726 5.49442 4.85605 5.22075 4.85726 4.94709C4.86816 3.1634 6.07545 1.94036 7.8446 1.93673C11.0075 1.93068 14.1705 1.93552 17.3334 1.93552C17.6543 1.93552 17.9764 1.93552 18.3409 1.93552C18.3736 1.77447 18.3954 1.62431 18.4353 1.479C18.6799 0.58292 19.4041 0.0040994 20.3341 0.0040994C26.7604 -0.00074429 33.188 -0.00195521 39.6144 0.0040994C40.7308 0.00531032 41.3581 0.603506 41.6645 1.93552C43.0025 1.93552 44.3491 1.93552 45.6968 1.93552C47.8123 1.93552 49.9278 1.93189 52.0433 1.93552C53.9384 1.93915 55.1336 3.13433 55.1396 5.02216C55.1408 5.2595 55.1396 5.49684 55.1396 5.80563C55.8262 5.80563 56.4644 5.80079 57.1025 5.80684C58.7058 5.82258 59.9688 7.08194 59.9724 8.69126C59.9809 12.0564 59.9155 15.4228 59.9966 18.7867C60.0511 21.0427 58.9346 22.5018 57.1086 23.1279C57.1086 32.7983 57.1086 42.4808 57.1086 52.2046ZM4.89238 30.9795C4.89238 35.4962 4.89238 39.9754 4.89238 44.451C13.9234 44.451 22.9145 44.451 31.9068 44.451C31.9068 39.9415 31.9068 35.4757 31.9068 30.9795C22.9012 30.9795 13.9234 30.9795 4.89238 30.9795ZM51.2501 30.9928C46.7237 30.9928 42.2445 30.9928 37.7822 30.9928C37.7822 38.0937 37.7822 45.1521 37.7822 52.2021C42.2953 52.2021 46.7588 52.2021 51.2501 52.2021C51.2501 45.1243 51.2501 38.0803 51.2501 30.9928ZM18.3966 7.7649C18.238 7.75037 18.1605 7.73584 18.0817 7.73584C13.0867 7.73463 8.09284 7.73221 3.09779 7.73705C2.33127 7.73826 1.95952 8.12212 1.95347 8.89954C1.94499 10.0075 1.95104 11.1155 1.95104 12.2235C1.95104 12.657 1.95104 13.0893 1.95104 13.495C20.7058 13.495 39.3637 13.495 58.0458 13.495C58.0458 11.9777 58.0482 10.5089 58.0446 9.03879C58.0434 8.07248 57.7043 7.73463 56.7344 7.73463C51.881 7.73342 47.0264 7.73342 42.173 7.73463C41.9987 7.73463 41.8231 7.75279 41.6015 7.7649C41.6015 8.42122 41.6112 9.04243 41.5991 9.66242C41.5785 10.7619 40.7865 11.5963 39.7028 11.5987C33.2377 11.6084 26.7725 11.6084 20.3086 11.5999C19.2212 11.5987 18.4196 10.7716 18.3978 9.67937C18.3869 9.05817 18.3966 8.43696 18.3966 7.7649ZM35.8036 52.2094C35.8036 51.7807 35.8036 51.4199 35.8036 51.059C35.8036 42.878 35.8036 34.6982 35.8036 26.5173C35.8036 25.4008 36.0591 25.1501 37.1962 25.1501C42.0907 25.1501 46.9865 25.1501 51.881 25.1501C52.9297 25.1501 53.2058 25.4226 53.2058 26.4628C53.207 34.8048 53.207 43.1456 53.207 51.4877C53.207 51.7214 53.207 51.9563 53.207 52.19C53.8924 52.19 54.5027 52.19 55.1287 52.19C55.1287 42.4772 55.1287 32.8092 55.1287 23.2272C54.4348 22.8046 53.7918 22.4134 53.138 22.0163C52.3533 22.7731 51.4209 23.2139 50.2874 23.2163C49.1346 23.2187 48.2107 22.7101 47.3933 21.9581C46.5542 22.7682 45.6242 23.2126 44.4895 23.2163C43.3355 23.2199 42.4104 22.7137 41.593 21.9569C40.7563 22.7694 39.8239 23.2102 38.6904 23.2163C37.5352 23.2223 36.6125 22.7101 35.7854 21.9605C34.956 22.7646 34.0248 23.2114 32.8925 23.2163C31.7385 23.2211 30.8085 22.7234 29.9912 21.9557C29.1568 22.7585 28.2305 23.2114 27.0959 23.2163C25.9406 23.2211 25.0119 22.7246 24.1872 21.9533C23.3589 22.7646 22.4277 23.2078 21.2955 23.2151C20.1403 23.2223 19.2103 22.7283 18.3845 21.9521C17.5598 22.761 16.6311 23.2078 15.4988 23.2163C14.3436 23.2248 13.4124 22.7295 12.5878 21.9569C11.7607 22.7561 10.8332 23.2078 9.70095 23.2163C8.54452 23.2248 7.61453 22.7295 6.85528 22.0247C6.17353 22.4352 5.54264 22.8155 4.89601 23.2042C4.89601 23.8036 4.89601 24.4575 4.89601 25.1489C5.17452 25.1489 5.41428 25.1489 5.65283 25.1489C14.6173 25.1489 23.5818 25.1489 32.5462 25.1489C33.5925 25.1489 33.8673 25.4214 33.8673 26.4652C33.8685 34.8072 33.8685 43.1481 33.8685 51.4901C33.8685 51.7238 33.8685 51.9575 33.8685 52.2082C34.5394 52.2094 35.1352 52.2094 35.8036 52.2094ZM58.0458 58.0206C58.0458 57.1802 58.0458 56.398 58.0458 55.6157C58.0458 54.4496 57.7576 54.165 56.5794 54.165C42.5835 54.165 28.5889 54.165 14.5931 54.165C10.7871 54.165 6.98122 54.1638 3.17529 54.1662C2.46569 54.1662 2.00917 54.4436 1.98011 55.0103C1.92804 56.0056 1.96558 57.0059 1.96558 58.0206C20.6768 58.0206 39.3189 58.0206 58.0458 58.0206ZM4.88148 52.1912C13.921 52.1912 22.9121 52.1912 31.8875 52.1912C31.8875 50.2477 31.8875 48.3466 31.8875 46.4587C22.8625 46.4587 13.8859 46.4587 4.88148 46.4587C4.88148 48.3768 4.88148 50.2634 4.88148 52.1912ZM20.3534 9.63093C26.8137 9.63093 33.2255 9.63093 39.6216 9.63093C39.6216 7.04319 39.6216 4.49783 39.6216 1.96458C33.1747 1.96458 26.7774 1.96458 20.3534 1.96458C20.3534 4.5269 20.3534 7.05772 20.3534 9.63093ZM4.90448 27.0924C4.90448 27.7245 4.90448 28.3494 4.90448 28.9778C13.9174 28.9778 22.9073 28.9778 31.8875 28.9778C31.8875 28.3239 31.8875 27.7124 31.8875 27.0924C22.8782 27.0924 13.9174 27.0924 4.90448 27.0924ZM51.2271 28.9972C51.2271 28.3203 51.2271 27.7088 51.2271 27.1118C46.714 27.1118 42.2505 27.1118 37.7713 27.1118C37.7713 27.7548 37.7713 28.3663 37.7713 28.9972C42.2736 28.9972 46.7358 28.9972 51.2271 28.9972ZM18.3663 3.93839C18.3033 3.90932 18.2682 3.87905 18.2331 3.87905C14.7493 3.87421 11.2655 3.86331 7.78164 3.87421C7.21129 3.87542 6.84075 4.25928 6.79595 4.81994C6.77052 5.13236 6.7911 5.44841 6.7911 5.76083C10.6975 5.76083 14.5313 5.76083 18.3663 5.76083C18.3663 5.12025 18.3663 4.52326 18.3663 3.93839ZM41.6427 3.86815C41.6427 4.54627 41.6427 5.15779 41.6427 5.7584C45.5188 5.7584 49.3538 5.7584 53.2082 5.7584C53.2082 5.43145 53.2227 5.14931 53.2046 4.86838C53.1658 4.27381 52.7989 3.87663 52.2019 3.87421C48.6999 3.8621 45.1967 3.86815 41.6427 3.86815ZM1.96315 15.5003C1.96315 16.8698 1.91472 18.1946 1.9789 19.5145C2.02733 20.5183 2.90041 21.2631 3.87157 21.2776C4.83183 21.2909 5.73518 20.5547 5.79088 19.5484C5.86475 18.2115 5.80904 16.8674 5.80904 15.5003C4.52183 15.5003 3.28185 15.5003 1.96315 15.5003ZM7.76711 15.5003C7.76711 16.8686 7.71988 18.1934 7.78285 19.5133C7.83007 20.5195 8.70073 21.2643 9.6731 21.2764C10.6346 21.2885 11.5379 20.5522 11.5936 19.5472C11.6675 18.2103 11.6118 16.8674 11.6118 15.4991C10.3222 15.5003 9.08217 15.5003 7.76711 15.5003ZM13.5626 15.4991C13.5626 16.8505 13.525 18.1546 13.5747 19.4564C13.6122 20.4626 14.4417 21.2255 15.4177 21.274C16.3768 21.3212 17.3152 20.6128 17.3806 19.6041C17.469 18.2491 17.4024 16.8844 17.4024 15.4991C16.1237 15.4991 14.8849 15.4991 13.5626 15.4991ZM19.3665 15.4954C19.3665 16.8565 19.3266 18.1619 19.3799 19.4648C19.421 20.4784 20.2493 21.2316 21.2289 21.2764C22.1831 21.3188 23.1216 20.6031 23.1858 19.5968C23.273 18.243 23.2076 16.8783 23.2076 15.4966C21.9192 15.4954 20.6804 15.4954 19.3665 15.4954ZM29.0297 15.5148C27.7025 15.5148 26.4492 15.5148 25.1656 15.5148C25.1656 16.842 25.1342 18.128 25.1753 19.4103C25.2092 20.4699 26.0823 21.2776 27.0971 21.2764C28.1094 21.2752 28.9825 20.4723 29.0188 19.4091C29.0624 18.1268 29.0297 16.842 29.0297 15.5148ZM30.9708 15.4954C30.9708 16.8614 30.9321 18.1667 30.9829 19.4685C31.0229 20.4747 31.8572 21.2316 32.8356 21.2764C33.7656 21.3188 34.7053 20.6346 34.7755 19.6525C34.8736 18.2806 34.7997 16.8965 34.7997 15.4954C33.5234 15.4954 32.2834 15.4954 30.9708 15.4954ZM40.6219 15.5063C39.3262 15.5063 38.0729 15.5063 36.7784 15.5063C36.7784 16.8614 36.7336 18.1849 36.7929 19.5048C36.8377 20.5099 37.7023 21.2594 38.6747 21.2776C39.6337 21.2958 40.5456 20.5631 40.6025 19.5581C40.6788 18.2212 40.6219 16.8759 40.6219 15.5063ZM42.5799 15.5003C42.5799 16.8674 42.5327 18.1922 42.5957 19.5121C42.6429 20.5159 43.5172 21.2631 44.4859 21.2752C45.4547 21.2873 46.3495 20.5595 46.4052 19.5496C46.4791 18.2127 46.4234 16.8686 46.4234 15.5003C45.1398 15.5003 43.8998 15.5003 42.5799 15.5003ZM48.379 15.4954C48.379 16.8565 48.3391 18.1619 48.3923 19.4648C48.4335 20.4784 49.2618 21.2316 50.2414 21.2764C51.1956 21.3188 52.1341 20.6031 52.1983 19.5968C52.2855 18.243 52.2201 16.8783 52.2201 15.4966C50.9317 15.4954 49.6917 15.4954 48.379 15.4954ZM54.1793 15.4979C54.1793 16.8541 54.1418 18.1595 54.1915 19.4612C54.2302 20.4675 55.0609 21.2304 56.0369 21.2764C56.9899 21.3224 57.932 20.6079 57.9974 19.5992C58.0858 18.2454 58.0192 16.8807 58.0192 15.4966C56.7368 15.4979 55.498 15.4979 54.1793 15.4979Z" fill="#151414"/>
<path d="M9.33249 42.1952C8.95589 41.8089 8.53691 41.3778 8.17969 41.0097C10.4175 38.7707 12.6662 36.5208 14.8955 34.2891C15.2466 34.6463 15.6777 35.0858 16.0652 35.4806C13.8359 37.7051 11.5909 39.9429 9.33249 42.1952Z" fill="#151414"/>
<path d="M18.0021 42.1586C17.6546 41.805 17.2344 41.3763 16.8711 41.0058C19.1028 38.7728 21.3394 36.5351 23.5881 34.2852C23.9017 34.6448 24.3049 35.105 24.6525 35.5033C22.5213 37.6358 20.2847 39.8748 18.0021 42.1586Z" fill="#151414"/>
<path d="M40.668 37.7268C41.7542 37.7413 42.5909 38.6192 42.5679 39.7187C42.5449 40.7722 41.6743 41.6029 40.6062 41.5884C39.5212 41.5739 38.6845 40.6959 38.7075 39.5952C38.7293 38.5429 39.5999 37.7122 40.668 37.7268Z" fill="#151414"/>
<path d="M30.0614 2.90177C31.632 2.90177 33.2025 2.89814 34.7731 2.90298C36.4599 2.90903 37.7362 4.1696 37.735 5.81767C37.7338 7.4282 36.4502 8.69724 34.8022 8.69967C31.6005 8.70451 28.3988 8.70572 25.1971 8.69967C23.7016 8.69603 22.4265 7.58319 22.2764 6.1761C22.1141 4.65276 23.0284 3.30622 24.5142 2.98048C25.0155 2.87028 25.5531 2.90903 26.075 2.9054C27.4034 2.89692 28.7318 2.90177 30.0614 2.90177ZM29.9984 4.83198C28.4702 4.83198 26.9421 4.82835 25.4139 4.83319C24.6692 4.83561 24.2005 5.21584 24.2005 5.80072C24.2005 6.38317 24.6692 6.76703 25.4151 6.76824C28.4715 6.77188 31.5278 6.77309 34.5842 6.76824C35.3313 6.76703 35.7975 6.38438 35.7975 5.79951C35.7975 5.21584 35.3253 4.8344 34.583 4.83319C33.0548 4.83077 31.5266 4.83319 29.9984 4.83198Z" fill="#151414"/>
</g>
<defs>
<clipPath id="clip0_601_1287">
<rect width="60" height="59.9697" fill="white"/>
</clipPath>
</defs>
</svg>
