<svg width="80" height="60" viewBox="0 0 80 60" fill="none" xmlns="http://www.w3.org/2000/svg">
<g clip-path="url(#clip0_601_1226)">
<path d="M0 30.4289C2.86524 29.3291 5.73048 28.6197 8.65241 28.1338C13.7561 27.2834 18.8986 27.1118 24.0266 27.6867C27.6531 28.0933 31.2391 28.8691 34.8477 29.4506C35.332 29.5283 35.8746 29.5478 36.3395 29.4133C44.9676 26.919 53.7658 26.0816 62.7065 26.702C68.254 27.0858 73.701 28.0658 79.012 29.7389C79.3165 29.8345 79.6161 29.943 80 30.0726C79.8818 30.4645 79.783 30.816 79.6728 31.1626C79.5594 31.5173 79.4347 31.8688 79.297 32.277C77.734 31.8396 76.2277 31.3748 74.7004 30.999C66.8432 29.0635 58.8808 28.4804 50.8179 29.1688C43.2766 29.8134 36.0058 31.5076 29.1156 34.6903C24.0055 37.0502 19.3861 40.1082 15.6414 44.3745C15.5734 44.4522 15.4827 44.5121 15.3596 44.6158C14.898 44.2287 14.4477 43.8481 13.9942 43.4723C13.8711 43.3719 13.7366 43.286 13.5633 43.1629C15.6187 40.7042 17.93 38.7185 20.3822 36.8348C15.8503 36.5092 11.4075 36.9077 6.95011 37.9621C6.75251 37.196 6.56786 36.4801 6.34273 35.6119C7.9851 35.3155 9.52705 34.9819 11.0868 34.7664C15.1846 34.2044 19.2971 34.1461 23.4159 34.5591C23.6978 34.5867 24.0298 34.5818 24.2744 34.4619C26.4966 33.3848 28.7042 32.2802 31.0965 31.093C25.9605 30.0693 20.92 29.6352 15.8147 29.8183C10.6981 30.0029 5.71429 30.8533 0.882734 32.622C0.79527 32.4632 0.714286 32.3531 0.668934 32.2316C0.447036 31.6566 0.238095 31.0752 0 30.4289Z" fill="#151414"/>
<path d="M69.4658 52.0405C68.6997 52.3045 68 52.5458 67.3602 52.7661C66.5973 51.2501 65.9203 49.7567 65.1137 48.3379C64.001 46.3797 62.5335 44.6935 60.7891 43.2617C60.5494 43.0641 60.2416 42.8212 59.9614 42.8179C57.3359 42.7839 54.7088 42.7985 52.0476 42.92C54.6521 46.4363 56.7463 50.1033 58.1117 54.3016C57.378 54.5381 56.6556 54.7713 55.9073 55.011C55.4619 53.9226 55.0716 52.8989 54.6294 51.898C53.3255 48.9485 51.5957 46.2663 49.5047 43.8124C49.1759 43.4269 48.8698 43.265 48.3336 43.3767C46.343 43.7898 44.3395 44.1429 42.1966 44.5462C44.7298 48.333 46.403 52.2932 47.5303 56.6064C46.7577 56.8137 46.0466 57.0049 45.2935 57.2073C44.8756 55.931 44.5031 54.7 44.069 53.4934C43.1117 50.8241 41.8613 48.299 40.2595 45.9504C39.9631 45.5147 39.6926 45.3204 39.1548 45.5407C37.0994 46.3861 35.0311 47.2008 32.9449 48.0382C35.6109 52.6948 36.8063 55.7885 37.1658 58.9566C36.4483 59.0975 35.7211 59.2417 34.929 59.3971C34.0771 55.8451 33.3336 52.2802 30.7049 49.287C28.9945 50.7188 27.357 52.0923 25.6547 53.5193C25.1817 53.137 24.6051 52.6722 23.8633 52.0729C25.0149 51.0217 26.0385 49.9592 27.1901 49.0586C31.3932 45.7723 36.2264 43.7557 41.3349 42.4146C51.9974 39.6142 62.6728 39.6433 73.3304 42.5021C73.4859 42.5442 73.6398 42.5944 73.7904 42.6495C73.8374 42.6673 73.873 42.7127 73.9669 42.7855C73.7726 43.4512 73.5717 44.1396 73.3693 44.828C70.3745 44.2368 67.4201 43.6537 64.4658 43.0722C64.4269 43.1532 64.3881 43.2342 64.3476 43.3152C66.6119 45.8565 68.3434 48.7007 69.4658 52.0405Z" fill="#151414"/>
<path d="M76.9585 36.468C76.748 37.145 76.5261 37.8496 76.3074 38.5493C74.2893 38.065 72.3456 37.5386 70.3777 37.1369C63.8714 35.8088 57.3084 35.4962 50.6968 36.1343C44.3071 36.7514 38.1296 38.1962 32.2598 40.8379C27.8996 42.801 23.92 45.318 20.7373 48.9591C20.7033 48.9963 20.6482 49.0158 20.5526 49.0725C20.0116 48.6287 19.4545 48.1719 18.7969 47.6342C18.9993 47.3831 19.1775 47.1386 19.38 46.9167C22.6679 43.3161 26.6848 40.7553 31.0855 38.755C37.3197 35.9205 43.8843 34.3721 50.6838 33.7485C59.2698 32.9597 67.7182 33.6756 76.0142 36.0663C76.2718 36.1408 76.5261 36.2283 76.7787 36.3158C76.8257 36.332 76.8597 36.3822 76.9585 36.468Z" fill="#151414"/>
<path d="M55.3791 23.3811C52.5625 16.465 47.5738 12.5064 40.06 12.8223C32.6629 13.1332 28.0387 17.4141 25.7565 24.4484C25.0601 24.2881 24.3377 24.1213 23.625 23.9577C24.0639 17.3947 32.0847 10.7021 39.9726 10.3846C49.6114 9.99752 55.9719 16.9444 57.4783 22.704C56.7737 22.9308 56.0675 23.1592 55.3791 23.3811Z" fill="#151414"/>
<path d="M61.0105 8.95173C60.7773 9.35827 60.659 9.70003 60.4306 9.9365C59.4248 10.9812 58.3979 12.0049 57.3565 13.0155C56.7718 13.5824 56.0494 13.5889 55.5683 13.0868C55.1083 12.6058 55.1197 11.919 55.6623 11.3602C56.6908 10.3009 57.7096 9.22384 58.8174 8.25364C59.1268 7.98315 59.7714 7.91512 60.1974 8.01878C60.5133 8.09491 60.7238 8.60187 61.0105 8.95173Z" fill="#151414"/>
<path d="M26.2053 12.4161C25.9931 12.6931 25.8182 13.1499 25.5169 13.26C25.146 13.3961 24.5159 13.4123 24.2633 13.1855C23.0469 12.0922 21.8969 10.9212 20.7728 9.73231C20.3274 9.25936 20.4068 8.67303 20.8603 8.20818C21.2879 7.77086 21.8888 7.66072 22.3196 8.05755C23.5619 9.20267 24.7362 10.4191 25.9153 11.6306C26.066 11.7828 26.0838 12.0663 26.2053 12.4161Z" fill="#151414"/>
<path d="M39.5411 3.43449C39.5411 2.70887 39.5249 1.98324 39.546 1.25924C39.567 0.528755 40.0076 0.0428464 40.6393 0.000734296C41.2952 -0.0429975 41.8799 0.45101 41.8978 1.18959C41.9366 2.71858 41.9383 4.25082 41.8945 5.77981C41.8735 6.54106 41.3228 6.98324 40.6263 6.93951C39.9638 6.89902 39.5638 6.45522 39.5443 5.68911C39.5265 4.93919 39.5411 4.18603 39.5411 3.43449Z" fill="#151414"/>
<path d="M20.3754 20.8782C19.9494 20.7502 19.7372 20.7049 19.5412 20.6255C18.2244 20.0861 16.906 19.5516 15.5973 18.9928C14.8182 18.6592 14.5396 18.0437 14.8231 17.3861C15.1081 16.7236 15.735 16.492 16.5059 16.8014C17.8503 17.3424 19.1898 17.8995 20.526 18.4616C21.1593 18.7272 21.4897 19.2504 21.2468 19.8821C21.0897 20.2902 20.6426 20.5866 20.3754 20.8782Z" fill="#151414"/>
<path d="M66.6702 18.0785C66.4969 18.2728 66.2572 18.7474 65.8782 18.9239C64.4917 19.5686 63.0631 20.1241 61.6394 20.6894C60.977 20.9534 60.4684 20.6748 60.159 20.0836C59.8626 19.5167 60.1137 18.8041 60.747 18.5255C62.1723 17.897 63.609 17.2929 65.0618 16.7341C65.8458 16.4312 66.6475 17.0143 66.6702 18.0785Z" fill="#151414"/>
<path d="M30.6357 2.08008C30.809 2.24043 31.2658 2.48338 31.4423 2.85753C32.0691 4.19216 32.6198 5.56242 33.1608 6.93593C33.4604 7.69718 33.1689 8.35802 32.5064 8.60421C31.8877 8.83421 31.2803 8.5459 30.9677 7.82028C30.3944 6.49051 29.8258 5.1575 29.2994 3.80829C28.9415 2.89155 29.4566 2.08818 30.6357 2.08008Z" fill="#151414"/>
<path d="M49.4807 8.67425C48.4554 8.66939 47.8675 7.90975 48.1687 7.09666C48.7194 5.61464 49.3414 4.1553 49.9844 2.71053C50.2501 2.11286 50.8218 1.94441 51.4195 2.15011C52.0317 2.36067 52.367 2.89517 52.1451 3.49284C51.5588 5.07366 50.9012 6.63181 50.2047 8.1689C50.0784 8.44425 49.6297 8.57383 49.4807 8.67425Z" fill="#151414"/>
</g>
<defs>
<clipPath id="clip0_601_1226">
<rect width="80" height="59.3975" fill="white"/>
</clipPath>
</defs>
</svg>
