<svg width="80" height="55" viewBox="0 0 80 55" fill="none" xmlns="http://www.w3.org/2000/svg">
<g clip-path="url(#clip0_590_403)">
<path d="M21.3438 22.6973C22.2339 22.6973 23.0773 22.6973 23.97 22.6973C23.97 32.0051 23.97 41.3155 23.97 50.6543C24.886 50.6543 25.7528 50.6543 26.6789 50.6543C26.6789 50.4932 26.6789 50.3331 26.6789 50.1721C26.6789 45.5327 26.6789 40.8934 26.678 36.2549C26.678 35.1728 27.1711 34.6806 28.2556 34.6806C36.0894 34.6815 43.9231 34.6806 51.7568 34.6815C52.8414 34.6815 53.3261 35.1728 53.3261 36.2624C53.3261 40.9017 53.3261 45.5411 53.3261 50.1796C53.3261 50.3297 53.3261 50.4799 53.3261 50.6559C54.2271 50.6559 55.0939 50.6559 55.9965 50.6559C55.9965 41.3497 55.9965 32.0494 55.9965 22.7139C56.8934 22.7139 57.756 22.7139 58.6603 22.7139C58.6603 22.8708 58.6603 23.0201 58.6603 23.1695C58.6603 32.7118 58.6603 42.2541 58.6603 51.7964C58.6603 52.8267 58.1581 53.3272 57.1261 53.3272C45.6951 53.3281 34.264 53.3281 22.8321 53.3281C21.8827 53.3281 21.3463 52.8067 21.3463 51.8723C21.3446 42.2607 21.3446 32.6492 21.3446 23.0368C21.3437 22.94 21.3438 22.8433 21.3438 22.6973ZM34.6544 50.6668C34.6544 46.2018 34.6544 41.781 34.6544 37.3478C32.8741 37.3478 31.1196 37.3478 29.356 37.3478C29.356 41.8011 29.356 46.231 29.356 50.6668C31.1338 50.6668 32.8783 50.6668 34.6544 50.6668ZM37.3491 37.3403C37.3491 41.8052 37.3491 46.2252 37.3491 50.6593C39.1294 50.6593 40.8839 50.6593 42.6475 50.6593C42.6475 46.206 42.6475 41.776 42.6475 37.3403C40.8705 37.3403 39.1252 37.3403 37.3491 37.3403ZM50.6548 50.6651C50.6548 46.1985 50.6548 41.7785 50.6548 37.3503C48.8736 37.3503 47.1191 37.3503 45.3597 37.3503C45.3597 41.8044 45.3597 46.2335 45.3597 50.6651C47.1392 50.6651 48.8836 50.6651 50.6548 50.6651Z" fill="white"/>
<path d="M17.0575 26.2865C16.3692 25.5958 15.7635 24.9876 15.1328 24.3544C15.1979 24.2835 15.293 24.1725 15.3964 24.0691C23.2227 16.2412 31.0506 8.41328 38.8784 0.585386C39.6518 -0.187976 40.3459 -0.195484 41.1068 0.565364C48.9547 8.41244 56.8018 16.2595 64.6497 24.1074C64.7373 24.195 64.8199 24.2868 64.8858 24.3569C64.2676 24.9726 63.6594 25.5774 63.0587 26.1747C55.4261 18.5404 47.7608 10.8744 40.1165 3.22833C32.3862 10.9578 24.7127 18.6313 17.0575 26.2865Z" fill="white"/>
<path d="M39.9844 31.9924C36.513 31.9924 33.0416 31.9924 29.5703 31.9915C28.5099 31.9915 28.0127 31.4976 28.0127 30.4423C28.0118 28.3591 28.011 26.2768 28.0127 24.1937C28.0135 23.1934 28.5241 22.6803 29.5235 22.6803C36.508 22.6795 43.4916 22.6795 50.4761 22.6803C51.478 22.6803 51.9919 23.1942 51.9927 24.1878C51.9936 26.2843 51.9936 28.3808 51.9927 30.4773C51.9927 31.4734 51.4763 31.9915 50.4811 31.9915C46.9822 31.9924 43.4833 31.9924 39.9844 31.9924ZM36.0183 25.3399C36.0183 26.6956 36.0183 28.0054 36.0183 29.3244C38.6879 29.3244 41.33 29.3244 43.9788 29.3244C43.9788 27.9812 43.9788 26.6614 43.9788 25.3399C41.3108 25.3399 38.6787 25.3399 36.0183 25.3399ZM30.6773 29.3169C31.5883 29.3169 32.4535 29.3169 33.3194 29.3169C33.3194 27.977 33.3194 26.6689 33.3194 25.3483C32.4284 25.3483 31.5633 25.3483 30.6773 25.3483C30.6773 26.6798 30.6773 27.9887 30.6773 29.3169ZM49.3114 29.3286C49.3114 28.0046 49.3114 26.6764 49.3114 25.3541C48.4179 25.3541 47.552 25.3541 46.6835 25.3541C46.6835 26.6923 46.6835 28.0012 46.6835 29.3286C47.5645 29.3286 48.4196 29.3286 49.3114 29.3286Z" fill="white"/>
<path d="M50.6992 9.32151C50.6992 8.42634 50.6992 7.5829 50.6992 6.67689C50.8511 6.67689 50.9971 6.67689 51.143 6.67689C54.9198 6.67689 58.6973 6.6819 62.474 6.67189C62.9804 6.67022 63.3817 6.8304 63.7379 7.18746C68.9871 12.4442 74.2405 17.6975 79.4963 22.9484C79.9401 23.3922 80.1295 23.8886 79.9018 24.4943C79.694 25.044 79.2077 25.3243 78.4985 25.3243C74.7218 25.3252 70.9443 25.3252 67.1676 25.3252C67.0291 25.3252 66.8906 25.3252 66.7187 25.3252C66.7187 24.455 66.7187 23.6016 66.7187 22.6872C69.5878 22.6872 72.4752 22.6872 75.3625 22.6872C75.4001 22.6297 75.4385 22.5713 75.476 22.5137C75.3267 22.4169 75.154 22.3435 75.0305 22.2209C70.8141 18.0129 66.6045 13.7973 62.3822 9.59515C62.2296 9.44248 61.9568 9.33569 61.739 9.33486C58.2259 9.319 54.7129 9.32318 51.1989 9.32234C51.0479 9.32151 50.8961 9.32151 50.6992 9.32151Z" fill="white"/>
<path d="M29.3035 6.67661C29.3035 7.5701 29.3035 8.42356 29.3035 9.32039C29.1224 9.32039 28.9598 9.32039 28.7971 9.32039C25.284 9.32039 21.7709 9.31789 18.2578 9.3304C18.0609 9.33123 17.8098 9.40882 17.6755 9.5423C13.3757 13.8237 9.08677 18.116 4.79616 22.4075C4.73776 22.4659 4.68437 22.5293 4.57842 22.6461C7.50918 22.6461 10.3824 22.6461 13.2898 22.6461C13.2898 23.5471 13.2898 24.4005 13.2898 25.3216C13.1605 25.3216 13.0153 25.3216 12.8702 25.3216C9.09345 25.3216 5.31591 25.3166 1.5392 25.3266C0.893476 25.3282 0.395421 25.1205 0.11928 24.5173C-0.132667 23.9675 0.0158316 23.447 0.552263 22.9105C5.7856 17.678 11.0206 12.4455 16.2489 7.2072C16.6168 6.83846 17.0231 6.66827 17.5454 6.66993C21.3363 6.68078 25.1272 6.67577 28.918 6.67577C29.0398 6.67661 29.1608 6.67661 29.3035 6.67661Z" fill="white"/>
<path d="M66.6637 54.6429C65.7735 54.6429 64.9309 54.6429 64.0199 54.6429C64.0199 54.0839 63.9765 53.5166 64.0308 52.9593C64.1033 52.2152 63.9223 51.8106 63.1398 51.4702C61.3144 50.6743 60.4318 49.0809 60.1064 47.1737C59.8361 45.587 60.1873 44.0502 60.622 42.5394C61.13 40.7716 61.8216 39.0772 62.9329 37.5914C63.2365 37.1851 63.6011 36.8038 64.0032 36.4968C64.8684 35.8369 65.8636 35.8052 66.6862 36.5143C67.2944 37.0391 67.85 37.6798 68.2605 38.3697C69.7279 40.8392 70.6682 43.5021 70.6423 46.4045C70.6256 48.2649 69.8764 49.8626 68.3581 51.0122C67.956 51.3167 67.4763 51.5369 67.0032 51.7213C66.7271 51.8289 66.652 51.9474 66.6587 52.2227C66.6754 53.0127 66.6637 53.8036 66.6637 54.6429ZM66.677 49.0033C66.9123 48.7763 67.0958 48.6354 67.2352 48.4593C67.8684 47.6568 68.107 46.7282 68.001 45.7263C67.7691 43.5305 67.0683 41.4857 65.9287 39.5944C65.7677 39.3275 65.565 39.0864 65.3489 38.7894C65.1629 39.0322 65.006 39.2057 64.8825 39.4017C63.6487 41.3572 62.9112 43.4888 62.6801 45.7872C62.5808 46.7758 62.8353 47.6885 63.4618 48.4743C63.5994 48.647 63.7838 48.7822 63.9465 48.9349C63.9782 48.9157 64.0091 48.8965 64.0408 48.8773C64.0408 47.7068 64.0408 46.5363 64.0408 45.3817C64.9401 45.3817 65.7936 45.3817 66.6779 45.3817C66.677 46.5722 66.677 47.731 66.677 49.0033Z" fill="white"/>
<path d="M15.9935 51.9412C15.9935 52.7713 15.9935 53.6848 15.9935 54.63C15.1142 54.63 14.2616 54.63 13.3431 54.63C13.3431 54.0252 13.3022 53.4028 13.3548 52.7888C13.4098 52.1397 13.2455 51.8177 12.5714 51.5291C10.6918 50.7257 9.76909 49.1264 9.42954 47.1709C9.18177 45.7426 9.46458 44.3502 9.82665 42.9779C10.3364 41.0482 11.0672 39.2103 12.2569 37.5877C12.5088 37.244 12.8033 36.9178 13.1303 36.645C14.1648 35.7798 15.3086 35.7773 16.278 36.7167C16.8286 37.2498 17.3158 37.8822 17.7013 38.5463C18.9568 40.7062 19.7552 43.0388 19.9571 45.5349C20.1348 47.7273 19.4616 49.6286 17.6762 51.0118C17.1915 51.3864 16.5942 51.615 15.9935 51.9412ZM14.6712 38.7807C14.4702 39.0485 14.2975 39.2445 14.1615 39.4639C12.9635 41.4053 12.2302 43.5101 12.0032 45.7818C11.904 46.7721 12.1567 47.6831 12.7816 48.4707C12.9193 48.6442 13.1028 48.7827 13.3573 49.0246C13.3573 47.714 13.3573 46.5435 13.3573 45.3789C14.2566 45.3789 15.1092 45.3789 16.0127 45.3789C16.0127 46.5735 16.0127 47.7398 16.0127 48.9053C16.0494 48.9203 16.0853 48.9362 16.122 48.9512C16.3548 48.665 16.6217 48.4006 16.8128 48.0886C17.2533 47.3686 17.4159 46.5694 17.3258 45.7318C17.0914 43.5493 16.3998 41.5171 15.2744 39.6341C15.1084 39.3547 14.899 39.1002 14.6712 38.7807Z" fill="white"/>
<path d="M5.31052 49.3522C6.22988 49.3522 7.085 49.3522 7.96431 49.3522C7.96431 50.2407 7.96431 51.0934 7.96431 51.9743C7.81748 51.981 7.68233 51.9935 7.54801 51.9935C6.40924 51.9952 5.27047 51.996 4.13087 51.9944C3.21485 51.9927 2.67758 51.4621 2.67758 50.5486C2.67508 46.4373 2.67591 42.3261 2.67591 38.214C2.67591 34.9912 2.67591 31.7693 2.67591 28.5466C2.67591 28.3839 2.67591 28.2204 2.67591 28.0352C3.56941 28.0352 4.42286 28.0352 5.31135 28.0352C5.31052 35.1314 5.31052 42.2093 5.31052 49.3522Z" fill="white"/>
<path d="M74.6776 28.0352C75.5803 28.0352 76.4329 28.0352 77.3314 28.0352C77.3314 28.2028 77.3314 28.3513 77.3314 28.5007C77.3314 35.8072 77.3314 43.1128 77.3314 50.4193C77.3314 51.5071 76.8434 51.9944 75.7563 51.9952C74.5341 51.9969 73.3128 51.9952 72.0547 51.9952C72.0547 51.1276 72.0547 50.2749 72.0547 49.3706C72.899 49.3706 73.7641 49.3706 74.6784 49.3706C74.6776 42.2326 74.6776 35.1447 74.6776 28.0352Z" fill="white"/>
<path d="M44.0314 16.1726C41.3175 16.1726 38.6821 16.1726 36.0124 16.1726C36.0124 17.877 36.0124 19.5655 36.0124 21.2891C35.1248 21.2891 34.2722 21.2891 33.3478 21.2891C33.3478 21.1782 33.3478 21.0472 33.3478 20.9162C33.3478 18.944 33.347 16.9718 33.3495 14.9996C33.3503 14.0269 33.8667 13.513 34.8445 13.513C38.2891 13.5113 41.733 13.5113 45.1776 13.513C46.1279 13.513 46.6593 14.0352 46.6601 14.9704C46.6626 17.0669 46.661 19.1626 46.661 21.2916C45.7892 21.2916 44.9357 21.2916 44.0322 21.2916C44.0314 19.6064 44.0314 17.9079 44.0314 16.1726Z" fill="white"/>
<path d="M10.6483 30.6874C10.6483 32.4602 10.6483 34.2046 10.6483 35.9708C9.76062 35.9708 8.90717 35.9708 8.02452 35.9708C8.01868 35.8623 8.0095 35.7689 8.0095 35.6754C8.00866 33.6065 8.00616 31.5367 8.0095 29.4677C8.01117 28.5483 8.54009 28.0169 9.45695 28.0161C12.054 28.0127 14.6511 28.0127 17.2481 28.0169C18.1083 28.0186 18.6497 28.5642 18.6522 29.426C18.6572 30.7032 18.653 31.9805 18.653 33.2928C17.7846 33.2928 16.9311 33.2928 16.0284 33.2928C16.0284 32.4477 16.0284 31.5817 16.0284 30.6882C14.2248 30.6874 12.4686 30.6874 10.6483 30.6874Z" fill="white"/>
<path d="M71.9992 35.9759C71.0957 35.9759 70.2523 35.9759 69.3596 35.9759C69.3596 34.2073 69.3596 32.4528 69.3596 30.6783C67.5543 30.6783 65.799 30.6783 64.0078 30.6783C64.0078 31.5535 64.0078 32.4094 64.0078 33.2946C63.1202 33.2946 62.2667 33.2946 61.3832 33.2946C61.3732 33.197 61.354 33.0919 61.354 32.9859C61.3524 31.8054 61.349 30.625 61.3549 29.4445C61.359 28.5543 61.893 28.0154 62.7815 28.0145C65.3785 28.0104 67.9756 28.0112 70.5726 28.0145C71.4595 28.0154 71.9967 28.556 71.9984 29.4445C72.0017 31.5001 72.0001 33.5549 72.0001 35.6105C71.9992 35.7198 71.9992 35.8283 71.9992 35.9759Z" fill="white"/>
</g>
<defs>
<clipPath id="clip0_590_403">
<rect width="80" height="54.6426" fill="white"/>
</clipPath>
</defs>
</svg>
