<svg width="18" height="16" viewBox="0 0 18 16" fill="none" xmlns="http://www.w3.org/2000/svg">
<mask id="path-1-inside-1_591_719" fill="white">
<path d="M9.00156 15.8376L8.70156 15.5751C1.87656 10.0251 0.0390625 8.07509 0.0390625 4.88759C0.0390625 2.26259 2.17656 0.162598 4.76406 0.162598C6.93906 0.162598 8.17656 1.40009 9.00156 2.33759C9.82656 1.40009 11.0641 0.162598 13.2391 0.162598C15.8641 0.162598 17.9641 2.30009 17.9641 4.88759C17.9641 8.07509 16.1266 10.0251 9.30156 15.5751L9.00156 15.8376ZM4.76406 1.13759C2.70156 1.13759 1.01406 2.82509 1.01406 4.88759C1.01406 7.62509 2.73906 9.4251 9.00156 14.5626C15.2641 9.4251 16.9891 7.62509 16.9891 4.88759C16.9891 2.82509 15.3016 1.13759 13.2391 1.13759C11.3641 1.13759 10.3516 2.2626 9.56406 3.1626L9.00156 3.8001L8.43906 3.1626C7.65156 2.2626 6.63906 1.13759 4.76406 1.13759Z"/>
</mask>
<path d="M9.00156 15.8376L8.70156 15.5751C1.87656 10.0251 0.0390625 8.07509 0.0390625 4.88759C0.0390625 2.26259 2.17656 0.162598 4.76406 0.162598C6.93906 0.162598 8.17656 1.40009 9.00156 2.33759C9.82656 1.40009 11.0641 0.162598 13.2391 0.162598C15.8641 0.162598 17.9641 2.30009 17.9641 4.88759C17.9641 8.07509 16.1266 10.0251 9.30156 15.5751L9.00156 15.8376ZM4.76406 1.13759C2.70156 1.13759 1.01406 2.82509 1.01406 4.88759C1.01406 7.62509 2.73906 9.4251 9.00156 14.5626C15.2641 9.4251 16.9891 7.62509 16.9891 4.88759C16.9891 2.82509 15.3016 1.13759 13.2391 1.13759C11.3641 1.13759 10.3516 2.2626 9.56406 3.1626L9.00156 3.8001L8.43906 3.1626C7.65156 2.2626 6.63906 1.13759 4.76406 1.13759Z" fill="#1E1E1F"/>
<path d="M9.00156 15.8376L7.02606 18.0953L9.00156 19.8239L10.9771 18.0953L9.00156 15.8376ZM8.70156 15.5751L10.6771 13.3174L10.6363 13.2817L10.5943 13.2475L8.70156 15.5751ZM9.00156 2.33759L6.74942 4.31948L9.00156 6.87873L11.2537 4.31948L9.00156 2.33759ZM9.30156 15.5751L7.40882 13.2475L7.36681 13.2817L7.32606 13.3174L9.30156 15.5751ZM9.00156 14.5626L7.09882 16.882L9.00156 18.4429L10.9043 16.882L9.00156 14.5626ZM9.56406 3.1626L11.8136 5.14748L11.8218 5.13811L9.56406 3.1626ZM9.00156 3.8001L6.75205 5.78496L9.00156 8.3344L11.2511 5.78496L9.00156 3.8001ZM8.43906 3.1626L6.18131 5.13813L6.18955 5.14746L8.43906 3.1626ZM10.9771 13.5799L10.6771 13.3174L6.72606 17.8328L7.02606 18.0953L10.9771 13.5799ZM10.5943 13.2475C7.13676 10.4359 5.21066 8.74283 4.1184 7.42822C3.18612 6.30615 3.03906 5.68246 3.03906 4.88759H-2.96094C-2.96094 7.28023 -2.18925 9.22529 -0.496532 11.2626C1.03621 13.1074 3.44136 15.1643 6.80882 17.9027L10.5943 13.2475ZM3.03906 4.88759C3.03906 3.93493 3.81789 3.1626 4.76406 3.1626V-2.8374C0.535225 -2.8374 -2.96094 0.590263 -2.96094 4.88759H3.03906ZM4.76406 3.1626C5.23664 3.1626 5.54599 3.28479 5.8022 3.44449C6.10355 3.63231 6.38513 3.90551 6.74942 4.31948L11.2537 0.355709C10.2996 -0.728491 8.29692 -2.8374 4.76406 -2.8374V3.1626ZM11.2537 4.31948C11.618 3.90551 11.8996 3.63231 12.2009 3.44449C12.4571 3.28479 12.7665 3.1626 13.2391 3.1626V-2.8374C9.7062 -2.8374 7.70352 -0.728491 6.74942 0.355709L11.2537 4.31948ZM13.2391 3.1626C14.1917 3.1626 14.9641 3.94143 14.9641 4.88759H20.9641C20.9641 0.658757 17.5364 -2.8374 13.2391 -2.8374V3.1626ZM14.9641 4.88759C14.9641 5.68246 14.817 6.30615 13.8847 7.42822C12.7925 8.74283 10.8664 10.4359 7.40882 13.2475L11.1943 17.9027C14.5618 15.1643 16.9669 13.1074 18.4997 11.2626C20.1924 9.22529 20.9641 7.28023 20.9641 4.88759H14.9641ZM7.32606 13.3174L7.02606 13.5799L10.9771 18.0953L11.2771 17.8328L7.32606 13.3174ZM4.76406 -1.86241C1.04471 -1.86241 -1.98594 1.16824 -1.98594 4.88759H4.01406C4.01406 4.48195 4.35841 4.13759 4.76406 4.13759V-1.86241ZM-1.98594 4.88759C-1.98594 7.11723 -1.1949 8.91497 0.369497 10.7633C1.79134 12.4431 4.01137 14.3492 7.09882 16.882L10.9043 12.2432C7.72925 9.63852 5.95553 8.07582 4.94925 6.88693C4.08552 5.86647 4.01406 5.39545 4.01406 4.88759H-1.98594ZM10.9043 16.882C13.9917 14.3492 16.2118 12.4431 17.6336 10.7633C19.198 8.91497 19.9891 7.11723 19.9891 4.88759H13.9891C13.9891 5.39545 13.9176 5.86647 13.0539 6.88693C12.0476 8.07582 10.2739 9.63852 7.09882 12.2432L10.9043 16.882ZM19.9891 4.88759C19.9891 1.16824 16.9584 -1.86241 13.2391 -1.86241V4.13759C13.6447 4.13759 13.9891 4.48195 13.9891 4.88759H19.9891ZM13.2391 -1.86241C9.90703 -1.86241 8.09907 0.281093 7.30633 1.18708L11.8218 5.13811C12.2293 4.67234 12.4472 4.45033 12.667 4.3026C12.815 4.20319 12.9624 4.13759 13.2391 4.13759V-1.86241ZM7.31455 1.17773L6.75205 1.81523L11.2511 5.78496L11.8136 5.14746L7.31455 1.17773ZM11.2511 1.81523L10.6886 1.17773L6.18955 5.14746L6.75205 5.78496L11.2511 1.81523ZM10.6968 1.18708C9.90405 0.281093 8.09609 -1.86241 4.76406 -1.86241V4.13759C5.04068 4.13759 5.18816 4.20319 5.33609 4.3026C5.55592 4.45033 5.77378 4.67234 6.18133 5.13811L10.6968 1.18708Z" fill="#1E1E1F" mask="url(#path-1-inside-1_591_719)"/>
</svg>
