<?xml version="1.0" encoding="utf-8"?>
<!-- Generator: Adobe Illustrator 26.0.0, SVG Export Plug-In . SVG Version: 6.00 Build 0)  -->
<svg version="1.1" id="Layer_1" xmlns="http://www.w3.org/2000/svg" xmlns:xlink="http://www.w3.org/1999/xlink" x="0px" y="0px"
	 viewBox="0 0 18 16" style="enable-background:new 0 0 18 16;" xml:space="preserve">
<style type="text/css">
	.st0{fill:#036A0B;}
</style>
<path class="st0" d="M9,15.8l-0.3-0.3C1.9,10,0,8.1,0,4.9c0-2.6,2.1-4.7,4.7-4.7c2.2,0,3.4,1.2,4.2,2.2c0.8-0.9,2.1-2.2,4.2-2.2
	c2.6,0,4.7,2.1,4.7,4.7c0,3.2-1.8,5.1-8.7,10.7L9,15.8z M4.8,1.1C2.7,1.1,1,2.8,1,4.9c0,2.7,1.7,4.5,8,9.7c6.3-5.1,8-6.9,8-9.7
	c0-2.1-1.7-3.8-3.7-3.8c-1.9,0-2.9,1.1-3.7,2L9,3.8L8.4,3.2C7.7,2.3,6.6,1.1,4.8,1.1z"/>
</svg>
