<svg width="8" height="12" viewBox="0 0 8 12" fill="none" xmlns="http://www.w3.org/2000/svg">
<g opacity="0.6" clip-path="url(#clip0_590_442)">
<path d="M4.0058 0.000787316C5.91163 5.83197e-05 7.54143 1.32926 7.92099 3.18699C8.07408 3.93639 7.98903 4.67268 7.79463 5.40192C7.51105 6.46504 7.0479 7.45307 6.5218 8.41364C5.93521 9.48429 5.26987 10.5051 4.55206 11.4922C4.25779 11.8968 3.73655 11.9089 3.44617 11.5051C2.47393 10.1533 1.58237 8.7519 0.881562 7.2368C0.547439 6.51461 0.267991 5.77273 0.107369 4.99028C-0.16965 3.64018 0.0769938 2.41182 0.991884 1.35721C1.66159 0.585199 2.51694 0.142699 3.53438 0.0199842C3.58638 0.0136662 3.63838 0.0029743 3.69063 0.00151631C3.7956 -0.00139967 3.90058 0.000787316 4.0058 0.000787316ZM4.01867 5.89715C5.09321 5.89982 5.95707 5.04471 5.96169 3.97357C5.96631 2.90997 5.09613 2.03469 4.03131 2.03274C2.96382 2.03056 2.09121 2.89539 2.08708 3.95948C2.08319 5.02454 2.9507 5.89448 4.01867 5.89715Z" fill="#1E1E1F"/>
</g>
<defs>
<clipPath id="clip0_590_442">
<rect width="8" height="11.8017" fill="white"/>
</clipPath>
</defs>
</svg>
