<svg width="14" height="21" viewBox="0 0 14 21" fill="none" xmlns="http://www.w3.org/2000/svg">
<path d="M7.01035 0.00137784C10.3457 0.000102063 13.1979 2.32628 13.8622 5.57739C14.1301 6.8889 13.9812 8.17744 13.641 9.45364C13.1447 11.3142 12.3342 13.0433 11.4135 14.7243C10.3869 16.598 9.22256 18.3845 7.96634 20.1119C7.45135 20.82 6.53917 20.8413 6.03098 20.1345C4.32951 17.7688 2.76923 15.3163 1.54278 12.6648C0.958048 11.4009 0.468998 10.1026 0.187901 8.73325C-0.296896 6.3705 0.134743 4.22081 1.73585 2.37518C2.90787 1.02413 4.40478 0.24973 6.18535 0.0349734C6.27635 0.0239166 6.36736 0.00520519 6.45879 0.00265363C6.6425 -0.0024495 6.82622 0.00137784 7.01035 0.00137784ZM7.03289 10.3203C8.9134 10.325 10.4252 8.82851 10.4333 6.95396C10.4414 5.0926 8.9185 3.56081 7.05501 3.55741C5.18684 3.55358 3.65973 5.06708 3.6525 6.9293C3.64569 8.79321 5.16387 10.3156 7.03289 10.3203Z" fill="#036A0B"/>
</svg>
