<svg width="10" height="15" viewBox="0 0 10 15" fill="none" xmlns="http://www.w3.org/2000/svg">
<path d="M5.0074 0.000984174C7.38977 7.29019e-05 9.42707 1.66163 9.90154 3.98385C10.0929 4.92064 9.98659 5.84103 9.74358 6.7526C9.3891 8.08154 8.81014 9.31662 8.1525 10.5174C7.41923 11.8557 6.58754 13.1318 5.69024 14.3657C5.32239 14.8714 4.67083 14.8866 4.30784 14.3818C3.09251 12.692 1.97802 10.9402 1.10199 9.04628C0.68432 8.14351 0.334999 7.21614 0.134215 6.23804C-0.212069 4.55036 0.0962452 3.01487 1.23989 1.69656C2.07705 0.731521 3.14627 0.178379 4.41811 0.024981C4.48311 0.0170833 4.54811 0.00371799 4.61342 0.00189545C4.74465 -0.00174964 4.87587 0.000984174 5.0074 0.000984174ZM5.0235 7.37166C6.36671 7.375 7.44657 6.30608 7.45234 4.96712C7.45811 3.63757 6.37036 2.54343 5.03929 2.541C3.70488 2.53827 2.61409 3.61934 2.60893 4.9495C2.60407 6.28087 3.68848 7.36832 5.0235 7.37166Z" fill="white"/>
</svg>
