<svg width="32" height="32" viewBox="0 0 32 32" fill="none" xmlns="http://www.w3.org/2000/svg">
<circle cx="16" cy="16" r="15.5" stroke="#036A0B"/>
<g clip-path="url(#clip0_591_606)">
<path d="M19.9786 13.6264C19.9786 13.7523 19.9413 13.8753 19.8714 13.98C19.8014 14.0847 19.702 14.1663 19.5857 14.2145C19.4695 14.2627 19.3415 14.2753 19.218 14.2507C19.0945 14.2262 18.9811 14.1656 18.8921 14.0766C18.8031 13.9875 18.7425 13.8741 18.7179 13.7507C18.6934 13.6272 18.706 13.4992 18.7542 13.3829C18.8024 13.2666 18.884 13.1672 18.9886 13.0973C19.0933 13.0274 19.2164 12.9901 19.3423 12.9901C19.511 12.9901 19.6728 13.0572 19.7922 13.1765C19.9115 13.2958 19.9785 13.4576 19.9786 13.6264V13.6264ZM22 16.5L21.9999 16.508L21.9637 18.8156C21.9543 19.6476 21.6196 20.4429 21.0313 21.0312C20.4429 21.6196 19.6476 21.9543 18.8156 21.9637L16.5 22.0001L16.492 21.9999L14.1845 21.9639C13.3524 21.9545 12.5571 21.6198 11.9688 21.0314C11.3804 20.4431 11.0457 19.6478 11.0362 18.8158L11 16.5L11.0002 16.492L11.0362 14.1844C11.0457 13.3524 11.3804 12.5571 11.9688 11.9688C12.5571 11.3804 13.3524 11.0457 14.1844 11.0363L16.5 11L16.508 11.0002L18.8155 11.0362C19.6475 11.0456 20.4428 11.3803 21.0312 11.9687C21.6195 12.557 21.9542 13.3523 21.9636 14.1843L22 16.5ZM20.9756 16.5L20.9397 14.2005C20.9333 13.6349 20.7057 13.0942 20.3058 12.6942C19.9058 12.2943 19.3651 12.0667 18.7995 12.0603L16.5 12.0244L14.2005 12.0603C13.6349 12.0667 13.0942 12.2943 12.6942 12.6943C12.2943 13.0942 12.0667 13.6349 12.0603 14.2005L12.0244 16.5L12.0603 18.7996C12.0667 19.3652 12.2942 19.9058 12.6942 20.3058C13.0942 20.7058 13.6349 20.9333 14.2005 20.9397L16.5 20.9756L18.7995 20.9397C19.3651 20.9334 19.9058 20.7058 20.3058 20.3058C20.7058 19.9059 20.9333 19.3652 20.9397 18.7996L20.9756 16.5ZM19.3244 16.5C19.3244 17.0586 19.1587 17.6047 18.8484 18.0692C18.538 18.5337 18.0969 18.8957 17.5808 19.1095C17.0647 19.3232 16.4968 19.3792 15.9489 19.2702C15.4011 19.1612 14.8978 18.8922 14.5028 18.4972C14.1078 18.1022 13.8388 17.5989 13.7298 17.051C13.6209 16.5031 13.6768 15.9352 13.8906 15.4192C14.1043 14.9031 14.4664 14.4619 14.9308 14.1516C15.3953 13.8412 15.9414 13.6756 16.5 13.6756C17.2488 13.6765 17.9667 13.9743 18.4962 14.5038C19.0257 15.0333 19.3235 15.7512 19.3244 16.5V16.5ZM18.3001 16.5C18.3001 16.144 18.1946 15.7959 17.9968 15.4999C17.799 15.2039 17.5178 14.9731 17.1889 14.8369C16.8599 14.7006 16.498 14.665 16.1488 14.7344C15.7996 14.8039 15.4788 14.9754 15.227 15.2271C14.9753 15.4789 14.8038 15.7996 14.7344 16.1488C14.6649 16.4981 14.7006 16.86 14.8368 17.1889C14.9731 17.5179 15.2038 17.799 15.4999 17.9968C15.7959 18.1946 16.144 18.3002 16.5 18.3002C16.9773 18.2997 17.4348 18.1098 17.7723 17.7723C18.1098 17.4349 18.2996 16.9773 18.3001 16.5H18.3001Z" fill="#036A0B"/>
</g>
<defs>
<clipPath id="clip0_591_606">
<rect width="11" height="11" fill="white" transform="translate(11 11)"/>
</clipPath>
</defs>
</svg>
