<svg width="32" height="32" viewBox="0 0 32 32" fill="none" xmlns="http://www.w3.org/2000/svg">
<path d="M20.2523 12.6904C19.9119 12.8413 19.5457 12.9434 19.1617 12.989C19.5538 12.7541 19.8547 12.3824 19.9967 11.9388C19.6298 12.1564 19.2233 12.3143 18.791 12.3994C18.4447 12.0306 17.9513 11.8 17.4048 11.8C16.3565 11.8 15.5062 12.6503 15.5062 13.6987C15.5062 13.8475 15.5231 13.9923 15.5556 14.1314C13.9777 14.0522 12.5786 13.2964 11.6422 12.1474C11.4788 12.4277 11.385 12.7541 11.385 13.102C11.385 13.7605 11.7205 14.3419 12.2296 14.6823C11.9185 14.6725 11.6256 14.5872 11.3697 14.4446C11.3696 14.4527 11.3696 14.4607 11.3696 14.4687C11.3696 15.3886 12.0243 16.1559 12.8927 16.3302C12.7336 16.3738 12.5655 16.3969 12.3926 16.3969C12.27 16.3969 12.1512 16.3851 12.0354 16.363C12.2769 17.1171 12.9779 17.6661 13.8089 17.6815C13.159 18.1908 12.3405 18.4943 11.4507 18.4943C11.2978 18.4943 11.1463 18.4854 10.998 18.4677C11.8378 19.0066 12.8361 19.3208 13.9082 19.3208C17.4005 19.3208 19.3103 16.4277 19.3103 13.9186C19.3103 13.8363 19.3084 13.7543 19.3047 13.673C19.676 13.4054 19.9978 13.0711 20.2523 12.6904Z" fill="#0A2014"/>
<circle cx="16" cy="16" r="15.5" stroke="#0A2014" stroke-opacity="0.05"/>
</svg>
