<svg width="32" height="32" viewBox="0 0 32 32" fill="none" xmlns="http://www.w3.org/2000/svg">
<path d="M20.2542 12.6904C19.9138 12.8413 19.5477 12.9434 19.1637 12.989C19.5558 12.7541 19.8566 12.3824 19.9987 11.9388C19.6318 12.1564 19.2253 12.3143 18.793 12.3994C18.4467 12.0306 17.9532 11.8 17.4068 11.8C16.3584 11.8 15.5082 12.6503 15.5082 13.6987C15.5082 13.8475 15.525 13.9923 15.5576 14.1314C13.9797 14.0522 12.5806 13.2964 11.6441 12.1474C11.4807 12.4277 11.387 12.7541 11.387 13.102C11.387 13.7605 11.7224 14.3419 12.2316 14.6823C11.9205 14.6725 11.6275 14.5872 11.3717 14.4446C11.3715 14.4527 11.3715 14.4607 11.3715 14.4687C11.3715 15.3886 12.0263 16.1559 12.8947 16.3302C12.7355 16.3738 12.5674 16.3969 12.3945 16.3969C12.2719 16.3969 12.1531 16.3851 12.0373 16.363C12.2789 17.1171 12.9799 17.6661 13.8109 17.6815C13.161 18.1908 12.3424 18.4943 11.4527 18.4943C11.2998 18.4943 11.1482 18.4854 11 18.4677C11.8398 19.0066 12.838 19.3208 13.9102 19.3208C17.4024 19.3208 19.3122 16.4277 19.3122 13.9186C19.3122 13.8363 19.3104 13.7543 19.3067 13.673C19.6779 13.4054 19.9998 13.0711 20.2542 12.6904V12.6904Z" fill="#036A0B"/>
<circle cx="16" cy="16" r="15.5" stroke="#036A0B"/>
</svg>
